# xmcd CD database file
#
# Track frame offsets:
#	150
#	16563
#	29540
#	39855
#	54378
#	65598
#	86920
#	108045
#	126078
#	139285
#	147288
#	157350
#	168780
#	186923
#	203208
#	224070
#	234463
#	256268
#	270618
#	282198
#
# Disc length: 3917 seconds
#
# Revision: 1
# Processed by: cddbd v1.5.1PL0 Copyright (c) Steve Scherf et al.
# Submitted via: CDex 1.50
#
DISCID=260f4b14
DTITLE=Divers - Les Plus Grandes Voix Du Jazz (vol. 2)
DYEAR=1993
DGENRE=Jazz
TTITLE0=Ray Charles - Georgia On My Mind
TTITLE1=Johnny Hartman - But Beautiful
TTITLE2=Louis Armstrong - What A Wonderful World
TTITLE3=King Pleasure - I'm In The Mood For Love
TTITLE4=The Golden Gate Quartet - Saint-Louis Blues
TTITLE5=Louis Prima - Just A Gigolo - I Ain't Got Nobody
TTITLE6=Joe Williams - Everyday I Have The Blues
TTITLE7=John Hendricks - Wirly Bird
TTITLE8=Louis Jordan - Wiskey Do Your Stuff
TTITLE9=Bobby Darin - Charade
TTITLE10=Dean Martin - Just In Time
TTITLE11=Nat King Cole - L.O.V.E
TTITLE12=Hoagy Carmichael - Skylark
TTITLE13=Babs Gonzales - Round Abaout Midnight
TTITLE14=Billy Eckistine - Misty
TTITLE15=Chet Baker - My Funy Valentine
TTITLE16=Bobby Mcferrin - Don't Worry, Bee Happy
TTITLE17=Mark Murphy - Honeysuckle Rose
TTITLE18=Lou Rawls - After The Lights Go Down Low
TTITLE19=Mel Torme - I Concentrate On You
EXTD=YEAR: 1993
EXTT0=
EXTT1=
EXTT2=
EXTT3=
EXTT4=
EXTT5=
EXTT6=
EXTT7=
EXTT8=
EXTT9=
EXTT10=
EXTT11=
EXTT12=
EXTT13=
EXTT14=
EXTT15=
EXTT16=
EXTT17=
EXTT18=
EXTT19=
PLAYORDER=
